<svg width="32" height="32" viewBox="0 0 32 32" fill="none" xmlns="http://www.w3.org/2000/svg">
<path fill-rule="evenodd" clip-rule="evenodd" d="M30 16C30 23.732 23.732 30 16 30C8.26801 30 2 23.732 2 16C2 8.26801 8.26801 2 16 2C23.732 2 30 8.26801 30 16ZM32 16C32 24.8366 24.8366 32 16 32C7.16344 32 0 24.8366 0 16C0 7.16344 7.16344 0 16 0C24.8366 0 32 7.16344 32 16ZM9.95956 13.5151C9.56904 13.9056 9.56904 14.5388 9.95956 14.9293C10.3501 15.3198 10.9832 15.3198 11.3738 14.9293L15 11.3031V23.1111C15 23.6634 15.4477 24.1111 16 24.1111C16.5523 24.1111 17 23.6634 17 23.1111V11.3031L20.6262 14.9293C21.0168 15.3198 21.6499 15.3198 22.0404 14.9293C22.431 14.5388 22.431 13.9056 22.0404 13.5151L16.7071 8.18178C16.3166 7.79125 15.6834 7.79125 15.2929 8.18178L9.95956 13.5151Z" fill="#F2F2F2"/>
</svg>
